0
SECTION
2
HEADER
9
$ACADVER
1
AC1015
9
$INSUNITS
70
4
0
ENDSEC
0
SECTION
2
TABLES
0
TABLE
2
LAYER
70
5
0
LAYER
2
FURNISH_BEARING_200
70
0
62
7
6
CONTINUOUS
0
LAYER
2
FURNISH_EXTERIOR_240
70
0
62
8
6
CONTINUOUS
0
LAYER
2
FURNISH_PARTITION_100
70
0
62
2
6
CONTINUOUS
0
LAYER
2
FURNISH_PARTITION_120
70
0
62
3
6
CONTINUOUS
0
LAYER
2
FURNISH_ANNOTATION
70
0
62
6
6
CONTINUOUS
0
ENDTAB
0
ENDSEC
0
SECTION
2
ENTITIES
0
LINE
8
FURNISH_BEARING_200
10
0
20
4000
30
0
11
6000
21
4000
31
0
0
LWPOLYLINE
8
FURNISH_EXTERIOR_240
90
4
70
0
10
0
20
4000
10
0
20
0
10
6000
20
0
10
6000
20
4000
0
LWPOLYLINE
8
FURNISH_PARTITION_100
90
4
70
0
10
2500
20
0
10
2500
20
2000
10
3500
20
2000
10
3500
20
4000
0
LINE
8
FURNISH_PARTITION_120
10
3500
20
3000
30
0
11
6000
21
3000
31
0
0
TEXT
8
FURNISH_ANNOTATION
10
300
20
3500
40
100
1
6000 x 4000 mm; mixed thickness 100 / 120 / 200 / 240; 3 rooms
0
ENDSEC
0
EOF
