0
SECTION
2
HEADER
9
$ACADVER
1
AC1015
9
$INSUNITS
70
4
0
ENDSEC
0
SECTION
2
ENTITIES
0
LINE
8
FURNISH_WALL_CENTER
10
0
20
0
30
0
11
5980
21
10
31
0
0
LINE
8
FURNISH_WALL_CENTER
10
6000
20
0
30
0
11
6000
21
4000
31
0
0
LINE
8
FURNISH_WALL_CENTER
10
6000
20
4000
30
0
11
3000
21
4000
31
0
0
LINE
8
FURNISH_WALL_CENTER
10
3000
20
4000
30
0
11
0
21
4000
31
0
0
LINE
8
FURNISH_WALL_CENTER
10
0
20
4000
30
0
11
0
21
0
31
0
0
LINE
8
FURNISH_WALL_CENTER
10
0
20
4000
30
0
11
3000
21
4000
31
0
0
LINE
8
FURNISH_WALL_CENTER
10
3000
20
0
30
0
11
3000
21
4000
31
0
0
ENDSEC
0
EOF
