0
SECTION
2
HEADER
9
$INSUNITS
70
4
0
ENDSEC
0
SECTION
2
TABLES
0
TABLE
2
LAYER
70
4
0
LAYER
2
FURNISH_EXTERIOR
70
0
62
1
6
CONTINUOUS
0
LAYER
2
FURNISH_BEARING
70
0
62
2
6
CONTINUOUS
0
LAYER
2
FURNISH_PARTITION
70
0
62
3
6
CONTINUOUS
0
LAYER
2
FURNISH_ANNOTATION
70
0
62
4
6
CONTINUOUS
0
ENDTAB
0
ENDSEC
0
SECTION
2
ENTITIES
0
LINE
8
FURNISH_EXTERIOR
10
0
20
0
30
0
11
6000
21
0
31
0
0
LINE
8
FURNISH_EXTERIOR
10
6000
20
0
30
0
11
6000
21
4000
31
0
0
LINE
8
FURNISH_BEARING
10
0
20
4000
30
0
11
6000
21
4000
31
0
0
LINE
8
FURNISH_EXTERIOR
10
0
20
0
30
0
11
0
21
4000
31
0
0
LINE
8
FURNISH_PARTITION
10
3000
20
0
30
0
11
3000
21
4000
31
0
0
TEXT
8
FURNISH_ANNOTATION
10
1000
20
2000
40
100
1
6000 x 4000 mm centerlines; thickness 200 mm
0
ENDSEC
0
EOF
