0
SECTION
2
HEADER
9
$ACADVER
1
AC1015
9
$INSUNITS
70
4
0
ENDSEC
0
SECTION
2
TABLES
0
TABLE
2
LAYER
70
4
0
LAYER
2
FURNISH_EXTERIOR_200
70
0
62
7
6
CONTINUOUS
0
LAYER
2
FURNISH_WINDOW_GUIDE
70
0
62
5
6
CONTINUOUS
0
LAYER
2
FURNISH_BAY_GUIDE
70
0
62
4
6
CONTINUOUS
0
LAYER
2
FURNISH_ANNOTATION
70
0
62
6
6
CONTINUOUS
0
ENDTAB
0
ENDSEC
0
SECTION
2
ENTITIES
0
LWPOLYLINE
8
FURNISH_EXTERIOR_200
90
4
70
1
10
0
20
0
10
6000
20
0
10
6000
20
4000
10
0
20
4000
0
LINE
8
FURNISH_WINDOW_GUIDE
10
1000
20
4000
30
0
11
2200
21
4000
31
0
0
LWPOLYLINE
8
FURNISH_BAY_GUIDE
90
4
70
0
10
3600
20
4000
10
3600
20
4600
10
5200
20
4600
10
5200
20
4000
0
LINE
8
FURNISH_BAY_GUIDE
10
3600
20
4000
30
0
11
5200
21
4000
31
0
0
TEXT
8
FURNISH_ANNOTATION
10
500
20
3000
40
100
1
WINDOW GUIDE: 1200 mm; add window after import
0
TEXT
8
FURNISH_ANNOTATION
10
3200
20
5000
40
100
1
RAISED BAY GUIDE: width 1600 / projection 600; NOT floor or wall
0
TEXT
8
FURNISH_ANNOTATION
10
500
20
2500
40
100
1
Keep wall centerlines continuous; GUIDE layers are not walls
0
ENDSEC
0
EOF
